<mxfile host="app.diagrams.net" modified="2021-10-17T09:33:27.435Z" agent="5.0 (Macintosh)" etag="X5VEF4FpmefNnpB9BEI7" version="15.5.4" type="github">
  <diagram id="eEXiIq-2-vwTyoAsXwY_" name="第 1 页">
    <mxGraphModel dx="1186" dy="683" grid="0" gridSize="10" guides="1" tooltips="1" connect="1" arrows="1" fold="1" page="1" pageScale="1" pageWidth="827" pageHeight="1169" math="0" shadow="0">
      <root>
        <mxCell id="0" />
        <mxCell id="1" parent="0" />
        <mxCell id="RO1_awQzEx4fvM8DealU-54" style="edgeStyle=orthogonalEdgeStyle;rounded=0;orthogonalLoop=1;jettySize=auto;html=1;fontSize=18;" edge="1" parent="1" source="RO1_awQzEx4fvM8DealU-3" target="RO1_awQzEx4fvM8DealU-33">
          <mxGeometry relative="1" as="geometry" />
        </mxCell>
        <mxCell id="RO1_awQzEx4fvM8DealU-59" style="edgeStyle=orthogonalEdgeStyle;rounded=0;orthogonalLoop=1;jettySize=auto;html=1;entryX=0;entryY=0.5;entryDx=0;entryDy=0;fontSize=18;" edge="1" parent="1" source="RO1_awQzEx4fvM8DealU-3" target="RO1_awQzEx4fvM8DealU-24">
          <mxGeometry relative="1" as="geometry" />
        </mxCell>
        <mxCell id="RO1_awQzEx4fvM8DealU-3" value="&lt;font style=&quot;font-size: 18px&quot;&gt;LSTM&lt;/font&gt;" style="rounded=1;whiteSpace=wrap;html=1;" vertex="1" parent="1">
          <mxGeometry x="94" y="528" width="88" height="39" as="geometry" />
        </mxCell>
        <mxCell id="RO1_awQzEx4fvM8DealU-30" style="edgeStyle=orthogonalEdgeStyle;rounded=0;orthogonalLoop=1;jettySize=auto;html=1;fontSize=18;" edge="1" parent="1" source="RO1_awQzEx4fvM8DealU-4" target="RO1_awQzEx4fvM8DealU-3">
          <mxGeometry relative="1" as="geometry" />
        </mxCell>
        <mxCell id="RO1_awQzEx4fvM8DealU-28" style="edgeStyle=orthogonalEdgeStyle;rounded=0;orthogonalLoop=1;jettySize=auto;html=1;exitX=0.5;exitY=1;exitDx=0;exitDy=0;fontSize=18;" edge="1" parent="1" source="RO1_awQzEx4fvM8DealU-8" target="RO1_awQzEx4fvM8DealU-24">
          <mxGeometry relative="1" as="geometry" />
        </mxCell>
        <mxCell id="RO1_awQzEx4fvM8DealU-13" value="&lt;b&gt;...&lt;/b&gt;" style="text;html=1;strokeColor=none;fillColor=none;align=center;verticalAlign=middle;whiteSpace=wrap;rounded=0;" vertex="1" parent="1">
          <mxGeometry x="244" y="299" width="60" height="30" as="geometry" />
        </mxCell>
        <mxCell id="RO1_awQzEx4fvM8DealU-14" value="&lt;font style=&quot;font-size: 18px&quot;&gt;X&lt;sub&gt;t-n&lt;/sub&gt;&lt;/font&gt;" style="text;html=1;strokeColor=none;fillColor=none;align=center;verticalAlign=middle;whiteSpace=wrap;rounded=0;" vertex="1" parent="1">
          <mxGeometry x="104.5" y="299" width="60" height="30" as="geometry" />
        </mxCell>
        <mxCell id="RO1_awQzEx4fvM8DealU-15" value="&lt;font style=&quot;font-size: 18px&quot;&gt;X&lt;sub&gt;t-1&lt;/sub&gt;&lt;/font&gt;" style="text;html=1;strokeColor=none;fillColor=none;align=center;verticalAlign=middle;whiteSpace=wrap;rounded=0;" vertex="1" parent="1">
          <mxGeometry x="373" y="299" width="60" height="30" as="geometry" />
        </mxCell>
        <mxCell id="RO1_awQzEx4fvM8DealU-27" style="edgeStyle=orthogonalEdgeStyle;rounded=0;orthogonalLoop=1;jettySize=auto;html=1;exitX=0.5;exitY=1;exitDx=0;exitDy=0;fontSize=18;" edge="1" parent="1" source="RO1_awQzEx4fvM8DealU-16" target="RO1_awQzEx4fvM8DealU-25">
          <mxGeometry relative="1" as="geometry" />
        </mxCell>
        <mxCell id="RO1_awQzEx4fvM8DealU-16" value="" style="rounded=1;whiteSpace=wrap;html=1;" vertex="1" parent="1">
          <mxGeometry x="374" y="331" width="53" height="169" as="geometry" />
        </mxCell>
        <mxCell id="RO1_awQzEx4fvM8DealU-17" value="" style="ellipse;whiteSpace=wrap;html=1;aspect=fixed;" vertex="1" parent="1">
          <mxGeometry x="379" y="340" width="43" height="43" as="geometry" />
        </mxCell>
        <mxCell id="RO1_awQzEx4fvM8DealU-18" value="" style="ellipse;whiteSpace=wrap;html=1;aspect=fixed;" vertex="1" parent="1">
          <mxGeometry x="379" y="449" width="43" height="43" as="geometry" />
        </mxCell>
        <mxCell id="RO1_awQzEx4fvM8DealU-19" value="&lt;div&gt;&lt;b&gt;.&lt;/b&gt;&lt;/div&gt;&lt;div&gt;&lt;b&gt;.&lt;/b&gt;&lt;/div&gt;&lt;div&gt;&lt;b&gt;.&lt;/b&gt;&lt;/div&gt;" style="ellipse;whiteSpace=wrap;html=1;aspect=fixed;" vertex="1" parent="1">
          <mxGeometry x="379" y="394" width="43" height="43" as="geometry" />
        </mxCell>
        <mxCell id="RO1_awQzEx4fvM8DealU-55" style="edgeStyle=orthogonalEdgeStyle;rounded=0;orthogonalLoop=1;jettySize=auto;html=1;fontSize=18;" edge="1" parent="1" source="RO1_awQzEx4fvM8DealU-24" target="RO1_awQzEx4fvM8DealU-34">
          <mxGeometry relative="1" as="geometry" />
        </mxCell>
        <mxCell id="RO1_awQzEx4fvM8DealU-62" style="edgeStyle=orthogonalEdgeStyle;rounded=0;orthogonalLoop=1;jettySize=auto;html=1;fontSize=18;" edge="1" parent="1" source="RO1_awQzEx4fvM8DealU-24" target="RO1_awQzEx4fvM8DealU-25">
          <mxGeometry relative="1" as="geometry" />
        </mxCell>
        <mxCell id="RO1_awQzEx4fvM8DealU-24" value="&lt;b&gt;...&lt;/b&gt;" style="rounded=1;whiteSpace=wrap;html=1;" vertex="1" parent="1">
          <mxGeometry x="226" y="528" width="88" height="39" as="geometry" />
        </mxCell>
        <mxCell id="RO1_awQzEx4fvM8DealU-56" style="edgeStyle=orthogonalEdgeStyle;rounded=0;orthogonalLoop=1;jettySize=auto;html=1;fontSize=18;" edge="1" parent="1" source="RO1_awQzEx4fvM8DealU-25" target="RO1_awQzEx4fvM8DealU-35">
          <mxGeometry relative="1" as="geometry" />
        </mxCell>
        <mxCell id="RO1_awQzEx4fvM8DealU-63" style="edgeStyle=orthogonalEdgeStyle;rounded=0;orthogonalLoop=1;jettySize=auto;html=1;entryX=0;entryY=0.5;entryDx=0;entryDy=0;fontSize=18;" edge="1" parent="1" source="RO1_awQzEx4fvM8DealU-25" target="RO1_awQzEx4fvM8DealU-36">
          <mxGeometry relative="1" as="geometry" />
        </mxCell>
        <mxCell id="RO1_awQzEx4fvM8DealU-25" value="&lt;font style=&quot;font-size: 18px&quot;&gt;LSTM&lt;/font&gt;" style="rounded=1;whiteSpace=wrap;html=1;" vertex="1" parent="1">
          <mxGeometry x="357" y="528" width="88" height="39" as="geometry" />
        </mxCell>
        <mxCell id="RO1_awQzEx4fvM8DealU-31" value="" style="group" vertex="1" connectable="0" parent="1">
          <mxGeometry x="111.5" y="331" width="53" height="169" as="geometry" />
        </mxCell>
        <mxCell id="RO1_awQzEx4fvM8DealU-4" value="" style="rounded=1;whiteSpace=wrap;html=1;" vertex="1" parent="RO1_awQzEx4fvM8DealU-31">
          <mxGeometry width="53" height="169" as="geometry" />
        </mxCell>
        <mxCell id="RO1_awQzEx4fvM8DealU-5" value="" style="ellipse;whiteSpace=wrap;html=1;aspect=fixed;" vertex="1" parent="RO1_awQzEx4fvM8DealU-31">
          <mxGeometry x="5" y="9" width="43" height="43" as="geometry" />
        </mxCell>
        <mxCell id="RO1_awQzEx4fvM8DealU-6" value="&lt;div&gt;&lt;b&gt;.&lt;/b&gt;&lt;/div&gt;&lt;div&gt;&lt;b&gt;.&lt;/b&gt;&lt;/div&gt;&lt;div&gt;&lt;b&gt;.&lt;/b&gt;&lt;/div&gt;" style="ellipse;whiteSpace=wrap;html=1;aspect=fixed;" vertex="1" parent="RO1_awQzEx4fvM8DealU-31">
          <mxGeometry x="5" y="63" width="43" height="43" as="geometry" />
        </mxCell>
        <mxCell id="RO1_awQzEx4fvM8DealU-7" value="" style="ellipse;whiteSpace=wrap;html=1;aspect=fixed;" vertex="1" parent="RO1_awQzEx4fvM8DealU-31">
          <mxGeometry x="5" y="118" width="43" height="43" as="geometry" />
        </mxCell>
        <mxCell id="RO1_awQzEx4fvM8DealU-32" value="" style="group" vertex="1" connectable="0" parent="1">
          <mxGeometry x="243.5" y="329" width="53" height="169" as="geometry" />
        </mxCell>
        <mxCell id="RO1_awQzEx4fvM8DealU-8" value="" style="rounded=1;whiteSpace=wrap;html=1;" vertex="1" parent="RO1_awQzEx4fvM8DealU-32">
          <mxGeometry width="53" height="169" as="geometry" />
        </mxCell>
        <mxCell id="RO1_awQzEx4fvM8DealU-9" value="&lt;b&gt;...&lt;/b&gt;" style="ellipse;whiteSpace=wrap;html=1;aspect=fixed;" vertex="1" parent="RO1_awQzEx4fvM8DealU-32">
          <mxGeometry x="5" y="9" width="43" height="43" as="geometry" />
        </mxCell>
        <mxCell id="RO1_awQzEx4fvM8DealU-11" value="&lt;b&gt;...&lt;/b&gt;" style="ellipse;whiteSpace=wrap;html=1;aspect=fixed;" vertex="1" parent="RO1_awQzEx4fvM8DealU-32">
          <mxGeometry x="5" y="118" width="43" height="43" as="geometry" />
        </mxCell>
        <mxCell id="RO1_awQzEx4fvM8DealU-12" value="&lt;b&gt;...&lt;/b&gt;" style="ellipse;whiteSpace=wrap;html=1;aspect=fixed;" vertex="1" parent="RO1_awQzEx4fvM8DealU-32">
          <mxGeometry x="5" y="63" width="43" height="43" as="geometry" />
        </mxCell>
        <mxCell id="RO1_awQzEx4fvM8DealU-49" style="edgeStyle=orthogonalEdgeStyle;rounded=0;orthogonalLoop=1;jettySize=auto;html=1;entryX=0.5;entryY=0;entryDx=0;entryDy=0;fontSize=18;" edge="1" parent="1" source="RO1_awQzEx4fvM8DealU-33" target="RO1_awQzEx4fvM8DealU-41">
          <mxGeometry relative="1" as="geometry" />
        </mxCell>
        <mxCell id="RO1_awQzEx4fvM8DealU-58" style="edgeStyle=orthogonalEdgeStyle;rounded=0;orthogonalLoop=1;jettySize=auto;html=1;entryX=0;entryY=0.5;entryDx=0;entryDy=0;fontSize=18;" edge="1" parent="1" source="RO1_awQzEx4fvM8DealU-33" target="RO1_awQzEx4fvM8DealU-34">
          <mxGeometry relative="1" as="geometry" />
        </mxCell>
        <mxCell id="RO1_awQzEx4fvM8DealU-33" value="&lt;font style=&quot;font-size: 18px&quot;&gt;LSTM&lt;/font&gt;" style="rounded=1;whiteSpace=wrap;html=1;" vertex="1" parent="1">
          <mxGeometry x="94" y="600" width="88" height="39" as="geometry" />
        </mxCell>
        <mxCell id="RO1_awQzEx4fvM8DealU-51" style="edgeStyle=orthogonalEdgeStyle;rounded=0;orthogonalLoop=1;jettySize=auto;html=1;fontSize=18;" edge="1" parent="1" source="RO1_awQzEx4fvM8DealU-34" target="RO1_awQzEx4fvM8DealU-42">
          <mxGeometry relative="1" as="geometry" />
        </mxCell>
        <mxCell id="RO1_awQzEx4fvM8DealU-57" style="edgeStyle=orthogonalEdgeStyle;rounded=0;orthogonalLoop=1;jettySize=auto;html=1;entryX=0;entryY=0.5;entryDx=0;entryDy=0;fontSize=18;" edge="1" parent="1" source="RO1_awQzEx4fvM8DealU-34" target="RO1_awQzEx4fvM8DealU-35">
          <mxGeometry relative="1" as="geometry" />
        </mxCell>
        <mxCell id="RO1_awQzEx4fvM8DealU-34" value="&lt;b&gt;...&lt;/b&gt;" style="rounded=1;whiteSpace=wrap;html=1;" vertex="1" parent="1">
          <mxGeometry x="226" y="600" width="88" height="39" as="geometry" />
        </mxCell>
        <mxCell id="RO1_awQzEx4fvM8DealU-52" style="edgeStyle=orthogonalEdgeStyle;rounded=0;orthogonalLoop=1;jettySize=auto;html=1;exitX=0.5;exitY=1;exitDx=0;exitDy=0;fontSize=18;" edge="1" parent="1" source="RO1_awQzEx4fvM8DealU-35" target="RO1_awQzEx4fvM8DealU-44">
          <mxGeometry relative="1" as="geometry" />
        </mxCell>
        <mxCell id="RO1_awQzEx4fvM8DealU-64" style="edgeStyle=orthogonalEdgeStyle;rounded=0;orthogonalLoop=1;jettySize=auto;html=1;entryX=0;entryY=0.5;entryDx=0;entryDy=0;fontSize=18;" edge="1" parent="1" source="RO1_awQzEx4fvM8DealU-35" target="RO1_awQzEx4fvM8DealU-39">
          <mxGeometry relative="1" as="geometry" />
        </mxCell>
        <mxCell id="RO1_awQzEx4fvM8DealU-35" value="&lt;font style=&quot;font-size: 18px&quot;&gt;LSTM&lt;/font&gt;" style="rounded=1;whiteSpace=wrap;html=1;" vertex="1" parent="1">
          <mxGeometry x="357" y="600" width="88" height="39" as="geometry" />
        </mxCell>
        <mxCell id="RO1_awQzEx4fvM8DealU-65" style="edgeStyle=orthogonalEdgeStyle;rounded=0;orthogonalLoop=1;jettySize=auto;html=1;fontSize=18;" edge="1" parent="1" source="RO1_awQzEx4fvM8DealU-36" target="RO1_awQzEx4fvM8DealU-37">
          <mxGeometry relative="1" as="geometry" />
        </mxCell>
        <mxCell id="RO1_awQzEx4fvM8DealU-36" value="&lt;b&gt;...&lt;/b&gt;" style="rounded=1;whiteSpace=wrap;html=1;" vertex="1" parent="1">
          <mxGeometry x="489" y="528" width="88" height="39" as="geometry" />
        </mxCell>
        <mxCell id="RO1_awQzEx4fvM8DealU-67" style="edgeStyle=orthogonalEdgeStyle;rounded=0;orthogonalLoop=1;jettySize=auto;html=1;fontSize=18;" edge="1" parent="1" source="RO1_awQzEx4fvM8DealU-37">
          <mxGeometry relative="1" as="geometry">
            <mxPoint x="751" y="547.5" as="targetPoint" />
          </mxGeometry>
        </mxCell>
        <mxCell id="RO1_awQzEx4fvM8DealU-37" value="&lt;font style=&quot;font-size: 18px&quot;&gt;LSTM&lt;/font&gt;" style="rounded=1;whiteSpace=wrap;html=1;" vertex="1" parent="1">
          <mxGeometry x="620" y="528" width="88" height="39" as="geometry" />
        </mxCell>
        <mxCell id="RO1_awQzEx4fvM8DealU-38" value="&lt;b&gt;...&lt;/b&gt;" style="rounded=1;whiteSpace=wrap;html=1;" vertex="1" parent="1">
          <mxGeometry x="752" y="528" width="88" height="39" as="geometry" />
        </mxCell>
        <mxCell id="RO1_awQzEx4fvM8DealU-53" style="edgeStyle=orthogonalEdgeStyle;rounded=0;orthogonalLoop=1;jettySize=auto;html=1;fontSize=18;" edge="1" parent="1" source="RO1_awQzEx4fvM8DealU-39" target="RO1_awQzEx4fvM8DealU-45">
          <mxGeometry relative="1" as="geometry" />
        </mxCell>
        <mxCell id="RO1_awQzEx4fvM8DealU-66" style="edgeStyle=orthogonalEdgeStyle;rounded=0;orthogonalLoop=1;jettySize=auto;html=1;fontSize=18;" edge="1" parent="1" source="RO1_awQzEx4fvM8DealU-39" target="RO1_awQzEx4fvM8DealU-40">
          <mxGeometry relative="1" as="geometry" />
        </mxCell>
        <mxCell id="RO1_awQzEx4fvM8DealU-39" value="&lt;b&gt;...&lt;/b&gt;" style="rounded=1;whiteSpace=wrap;html=1;" vertex="1" parent="1">
          <mxGeometry x="489" y="600" width="88" height="39" as="geometry" />
        </mxCell>
        <mxCell id="RO1_awQzEx4fvM8DealU-47" style="edgeStyle=orthogonalEdgeStyle;rounded=0;orthogonalLoop=1;jettySize=auto;html=1;fontSize=18;" edge="1" parent="1" source="RO1_awQzEx4fvM8DealU-40" target="RO1_awQzEx4fvM8DealU-46">
          <mxGeometry relative="1" as="geometry" />
        </mxCell>
        <mxCell id="RO1_awQzEx4fvM8DealU-40" value="&lt;font style=&quot;font-size: 18px&quot;&gt;LSTM&lt;/font&gt;" style="rounded=1;whiteSpace=wrap;html=1;" vertex="1" parent="1">
          <mxGeometry x="620" y="600" width="88" height="39" as="geometry" />
        </mxCell>
        <mxCell id="RO1_awQzEx4fvM8DealU-79" style="rounded=0;orthogonalLoop=1;jettySize=auto;html=1;exitX=0;exitY=1;exitDx=0;exitDy=0;fontSize=18;" edge="1" parent="1" source="RO1_awQzEx4fvM8DealU-41">
          <mxGeometry relative="1" as="geometry">
            <mxPoint x="87" y="769" as="targetPoint" />
          </mxGeometry>
        </mxCell>
        <mxCell id="RO1_awQzEx4fvM8DealU-80" style="edgeStyle=none;rounded=0;orthogonalLoop=1;jettySize=auto;html=1;exitX=1;exitY=1;exitDx=0;exitDy=0;fontSize=18;entryX=0.5;entryY=0;entryDx=0;entryDy=0;" edge="1" parent="1" source="RO1_awQzEx4fvM8DealU-41" target="RO1_awQzEx4fvM8DealU-69">
          <mxGeometry relative="1" as="geometry" />
        </mxCell>
        <mxCell id="RO1_awQzEx4fvM8DealU-82" style="edgeStyle=none;rounded=0;orthogonalLoop=1;jettySize=auto;html=1;exitX=1;exitY=1;exitDx=0;exitDy=0;entryX=0;entryY=0;entryDx=0;entryDy=0;fontSize=18;" edge="1" parent="1" source="RO1_awQzEx4fvM8DealU-41" target="RO1_awQzEx4fvM8DealU-70">
          <mxGeometry relative="1" as="geometry" />
        </mxCell>
        <mxCell id="RO1_awQzEx4fvM8DealU-83" style="edgeStyle=none;rounded=0;orthogonalLoop=1;jettySize=auto;html=1;exitX=1;exitY=1;exitDx=0;exitDy=0;entryX=0;entryY=0;entryDx=0;entryDy=0;fontSize=18;" edge="1" parent="1" source="RO1_awQzEx4fvM8DealU-41" target="RO1_awQzEx4fvM8DealU-71">
          <mxGeometry relative="1" as="geometry" />
        </mxCell>
        <mxCell id="RO1_awQzEx4fvM8DealU-84" style="edgeStyle=none;rounded=0;orthogonalLoop=1;jettySize=auto;html=1;exitX=1;exitY=1;exitDx=0;exitDy=0;entryX=0;entryY=0;entryDx=0;entryDy=0;fontSize=18;" edge="1" parent="1" source="RO1_awQzEx4fvM8DealU-41" target="RO1_awQzEx4fvM8DealU-72">
          <mxGeometry relative="1" as="geometry" />
        </mxCell>
        <mxCell id="RO1_awQzEx4fvM8DealU-41" value="" style="ellipse;whiteSpace=wrap;html=1;aspect=fixed;" vertex="1" parent="1">
          <mxGeometry x="116.5" y="672" width="43" height="43" as="geometry" />
        </mxCell>
        <mxCell id="RO1_awQzEx4fvM8DealU-91" style="edgeStyle=none;rounded=0;orthogonalLoop=1;jettySize=auto;html=1;exitX=0;exitY=1;exitDx=0;exitDy=0;fontSize=18;" edge="1" parent="1" source="RO1_awQzEx4fvM8DealU-42" target="RO1_awQzEx4fvM8DealU-68">
          <mxGeometry relative="1" as="geometry" />
        </mxCell>
        <mxCell id="RO1_awQzEx4fvM8DealU-92" style="edgeStyle=none;rounded=0;orthogonalLoop=1;jettySize=auto;html=1;exitX=0.5;exitY=1;exitDx=0;exitDy=0;fontSize=18;" edge="1" parent="1" source="RO1_awQzEx4fvM8DealU-42" target="RO1_awQzEx4fvM8DealU-69">
          <mxGeometry relative="1" as="geometry" />
        </mxCell>
        <mxCell id="RO1_awQzEx4fvM8DealU-93" style="edgeStyle=none;rounded=0;orthogonalLoop=1;jettySize=auto;html=1;exitX=1;exitY=1;exitDx=0;exitDy=0;fontSize=18;entryX=0.302;entryY=0.047;entryDx=0;entryDy=0;entryPerimeter=0;" edge="1" parent="1" source="RO1_awQzEx4fvM8DealU-42" target="RO1_awQzEx4fvM8DealU-70">
          <mxGeometry relative="1" as="geometry" />
        </mxCell>
        <mxCell id="RO1_awQzEx4fvM8DealU-94" style="edgeStyle=none;rounded=0;orthogonalLoop=1;jettySize=auto;html=1;exitX=1;exitY=1;exitDx=0;exitDy=0;entryX=0.5;entryY=0;entryDx=0;entryDy=0;fontSize=18;" edge="1" parent="1" source="RO1_awQzEx4fvM8DealU-42" target="RO1_awQzEx4fvM8DealU-71">
          <mxGeometry relative="1" as="geometry" />
        </mxCell>
        <mxCell id="RO1_awQzEx4fvM8DealU-95" style="edgeStyle=none;rounded=0;orthogonalLoop=1;jettySize=auto;html=1;exitX=1;exitY=1;exitDx=0;exitDy=0;entryX=0.337;entryY=0.163;entryDx=0;entryDy=0;entryPerimeter=0;fontSize=18;" edge="1" parent="1" source="RO1_awQzEx4fvM8DealU-42" target="RO1_awQzEx4fvM8DealU-72">
          <mxGeometry relative="1" as="geometry" />
        </mxCell>
        <mxCell id="RO1_awQzEx4fvM8DealU-42" value="&lt;b&gt;...&lt;/b&gt;" style="ellipse;whiteSpace=wrap;html=1;aspect=fixed;" vertex="1" parent="1">
          <mxGeometry x="248" y="672" width="43" height="43" as="geometry" />
        </mxCell>
        <mxCell id="RO1_awQzEx4fvM8DealU-96" style="edgeStyle=none;rounded=0;orthogonalLoop=1;jettySize=auto;html=1;exitX=0;exitY=0.721;exitDx=0;exitDy=0;fontSize=18;exitPerimeter=0;" edge="1" parent="1" source="RO1_awQzEx4fvM8DealU-44">
          <mxGeometry relative="1" as="geometry">
            <mxPoint x="87" y="775" as="targetPoint" />
          </mxGeometry>
        </mxCell>
        <mxCell id="RO1_awQzEx4fvM8DealU-97" style="edgeStyle=none;rounded=0;orthogonalLoop=1;jettySize=auto;html=1;exitX=0;exitY=1;exitDx=0;exitDy=0;entryX=1;entryY=0;entryDx=0;entryDy=0;fontSize=18;" edge="1" parent="1" source="RO1_awQzEx4fvM8DealU-44" target="RO1_awQzEx4fvM8DealU-69">
          <mxGeometry relative="1" as="geometry" />
        </mxCell>
        <mxCell id="RO1_awQzEx4fvM8DealU-98" style="edgeStyle=none;rounded=0;orthogonalLoop=1;jettySize=auto;html=1;exitX=0.5;exitY=1;exitDx=0;exitDy=0;fontSize=18;" edge="1" parent="1" source="RO1_awQzEx4fvM8DealU-44" target="RO1_awQzEx4fvM8DealU-70">
          <mxGeometry relative="1" as="geometry" />
        </mxCell>
        <mxCell id="RO1_awQzEx4fvM8DealU-101" style="edgeStyle=none;rounded=0;orthogonalLoop=1;jettySize=auto;html=1;exitX=1;exitY=1;exitDx=0;exitDy=0;entryX=0.5;entryY=0;entryDx=0;entryDy=0;fontSize=18;" edge="1" parent="1" source="RO1_awQzEx4fvM8DealU-44" target="RO1_awQzEx4fvM8DealU-71">
          <mxGeometry relative="1" as="geometry" />
        </mxCell>
        <mxCell id="RO1_awQzEx4fvM8DealU-102" style="edgeStyle=none;rounded=0;orthogonalLoop=1;jettySize=auto;html=1;exitX=1;exitY=0.5;exitDx=0;exitDy=0;entryX=0;entryY=0;entryDx=0;entryDy=0;fontSize=18;" edge="1" parent="1" source="RO1_awQzEx4fvM8DealU-44" target="RO1_awQzEx4fvM8DealU-72">
          <mxGeometry relative="1" as="geometry" />
        </mxCell>
        <mxCell id="RO1_awQzEx4fvM8DealU-44" value="" style="ellipse;whiteSpace=wrap;html=1;aspect=fixed;" vertex="1" parent="1">
          <mxGeometry x="380" y="672" width="43" height="43" as="geometry" />
        </mxCell>
        <mxCell id="RO1_awQzEx4fvM8DealU-103" style="edgeStyle=none;rounded=0;orthogonalLoop=1;jettySize=auto;html=1;exitX=0;exitY=0.5;exitDx=0;exitDy=0;fontSize=18;" edge="1" parent="1" source="RO1_awQzEx4fvM8DealU-45">
          <mxGeometry relative="1" as="geometry">
            <mxPoint x="86" y="775" as="targetPoint" />
          </mxGeometry>
        </mxCell>
        <mxCell id="RO1_awQzEx4fvM8DealU-104" style="edgeStyle=none;rounded=0;orthogonalLoop=1;jettySize=auto;html=1;exitX=0;exitY=1;exitDx=0;exitDy=0;entryX=1;entryY=0;entryDx=0;entryDy=0;fontSize=18;" edge="1" parent="1" source="RO1_awQzEx4fvM8DealU-45" target="RO1_awQzEx4fvM8DealU-69">
          <mxGeometry relative="1" as="geometry" />
        </mxCell>
        <mxCell id="RO1_awQzEx4fvM8DealU-105" style="edgeStyle=none;rounded=0;orthogonalLoop=1;jettySize=auto;html=1;exitX=0;exitY=1;exitDx=0;exitDy=0;fontSize=18;" edge="1" parent="1" source="RO1_awQzEx4fvM8DealU-45" target="RO1_awQzEx4fvM8DealU-71">
          <mxGeometry relative="1" as="geometry" />
        </mxCell>
        <mxCell id="RO1_awQzEx4fvM8DealU-106" style="edgeStyle=none;rounded=0;orthogonalLoop=1;jettySize=auto;html=1;exitX=1;exitY=0.5;exitDx=0;exitDy=0;entryX=0;entryY=0;entryDx=0;entryDy=0;fontSize=18;" edge="1" parent="1" source="RO1_awQzEx4fvM8DealU-45" target="RO1_awQzEx4fvM8DealU-72">
          <mxGeometry relative="1" as="geometry" />
        </mxCell>
        <mxCell id="RO1_awQzEx4fvM8DealU-45" value="&lt;b&gt;...&lt;/b&gt;" style="ellipse;whiteSpace=wrap;html=1;aspect=fixed;" vertex="1" parent="1">
          <mxGeometry x="511" y="672" width="43" height="43" as="geometry" />
        </mxCell>
        <mxCell id="RO1_awQzEx4fvM8DealU-108" style="edgeStyle=none;rounded=0;orthogonalLoop=1;jettySize=auto;html=1;exitX=0;exitY=1;exitDx=0;exitDy=0;fontSize=18;" edge="1" parent="1" source="RO1_awQzEx4fvM8DealU-46">
          <mxGeometry relative="1" as="geometry">
            <mxPoint x="86" y="770" as="targetPoint" />
          </mxGeometry>
        </mxCell>
        <mxCell id="RO1_awQzEx4fvM8DealU-109" style="edgeStyle=none;rounded=0;orthogonalLoop=1;jettySize=auto;html=1;exitX=0;exitY=1;exitDx=0;exitDy=0;entryX=1;entryY=0;entryDx=0;entryDy=0;fontSize=18;" edge="1" parent="1" source="RO1_awQzEx4fvM8DealU-46" target="RO1_awQzEx4fvM8DealU-69">
          <mxGeometry relative="1" as="geometry" />
        </mxCell>
        <mxCell id="RO1_awQzEx4fvM8DealU-110" style="edgeStyle=none;rounded=0;orthogonalLoop=1;jettySize=auto;html=1;exitX=0;exitY=1;exitDx=0;exitDy=0;entryX=1;entryY=0;entryDx=0;entryDy=0;fontSize=18;" edge="1" parent="1" source="RO1_awQzEx4fvM8DealU-46" target="RO1_awQzEx4fvM8DealU-70">
          <mxGeometry relative="1" as="geometry" />
        </mxCell>
        <mxCell id="RO1_awQzEx4fvM8DealU-112" style="edgeStyle=none;rounded=0;orthogonalLoop=1;jettySize=auto;html=1;exitX=0.5;exitY=1;exitDx=0;exitDy=0;fontSize=18;" edge="1" parent="1" source="RO1_awQzEx4fvM8DealU-46">
          <mxGeometry relative="1" as="geometry">
            <mxPoint x="560" y="759" as="targetPoint" />
          </mxGeometry>
        </mxCell>
        <mxCell id="RO1_awQzEx4fvM8DealU-113" style="edgeStyle=none;rounded=0;orthogonalLoop=1;jettySize=auto;html=1;exitX=0.5;exitY=1;exitDx=0;exitDy=0;entryX=0;entryY=0;entryDx=0;entryDy=0;fontSize=18;" edge="1" parent="1" source="RO1_awQzEx4fvM8DealU-46" target="RO1_awQzEx4fvM8DealU-72">
          <mxGeometry relative="1" as="geometry" />
        </mxCell>
        <mxCell id="RO1_awQzEx4fvM8DealU-46" value="" style="ellipse;whiteSpace=wrap;html=1;aspect=fixed;" vertex="1" parent="1">
          <mxGeometry x="642.5" y="672" width="43" height="43" as="geometry" />
        </mxCell>
        <mxCell id="RO1_awQzEx4fvM8DealU-114" style="edgeStyle=none;rounded=0;orthogonalLoop=1;jettySize=auto;html=1;exitX=0.5;exitY=1;exitDx=0;exitDy=0;entryX=0.384;entryY=0.163;entryDx=0;entryDy=0;entryPerimeter=0;fontSize=18;" edge="1" parent="1" source="RO1_awQzEx4fvM8DealU-68" target="RO1_awQzEx4fvM8DealU-74">
          <mxGeometry relative="1" as="geometry" />
        </mxCell>
        <mxCell id="RO1_awQzEx4fvM8DealU-116" style="edgeStyle=none;rounded=0;orthogonalLoop=1;jettySize=auto;html=1;exitX=1;exitY=1;exitDx=0;exitDy=0;entryX=0;entryY=0;entryDx=0;entryDy=0;fontSize=18;" edge="1" parent="1" source="RO1_awQzEx4fvM8DealU-68" target="RO1_awQzEx4fvM8DealU-75">
          <mxGeometry relative="1" as="geometry" />
        </mxCell>
        <mxCell id="RO1_awQzEx4fvM8DealU-117" style="edgeStyle=none;rounded=0;orthogonalLoop=1;jettySize=auto;html=1;exitX=1;exitY=1;exitDx=0;exitDy=0;entryX=0;entryY=0;entryDx=0;entryDy=0;fontSize=18;" edge="1" parent="1" source="RO1_awQzEx4fvM8DealU-68" target="RO1_awQzEx4fvM8DealU-76">
          <mxGeometry relative="1" as="geometry" />
        </mxCell>
        <mxCell id="RO1_awQzEx4fvM8DealU-68" value="" style="ellipse;whiteSpace=wrap;html=1;aspect=fixed;" vertex="1" parent="1">
          <mxGeometry x="42" y="759" width="43" height="43" as="geometry" />
        </mxCell>
        <mxCell id="RO1_awQzEx4fvM8DealU-115" style="edgeStyle=none;rounded=0;orthogonalLoop=1;jettySize=auto;html=1;exitX=0.5;exitY=1;exitDx=0;exitDy=0;fontSize=18;" edge="1" parent="1" source="RO1_awQzEx4fvM8DealU-69">
          <mxGeometry relative="1" as="geometry">
            <mxPoint x="265" y="832" as="targetPoint" />
          </mxGeometry>
        </mxCell>
        <mxCell id="RO1_awQzEx4fvM8DealU-118" style="edgeStyle=none;rounded=0;orthogonalLoop=1;jettySize=auto;html=1;exitX=1;exitY=1;exitDx=0;exitDy=0;entryX=0.36;entryY=0.07;entryDx=0;entryDy=0;entryPerimeter=0;fontSize=18;" edge="1" parent="1" source="RO1_awQzEx4fvM8DealU-69" target="RO1_awQzEx4fvM8DealU-75">
          <mxGeometry relative="1" as="geometry" />
        </mxCell>
        <mxCell id="RO1_awQzEx4fvM8DealU-119" style="edgeStyle=none;rounded=0;orthogonalLoop=1;jettySize=auto;html=1;exitX=1;exitY=1;exitDx=0;exitDy=0;entryX=0;entryY=0;entryDx=0;entryDy=0;fontSize=18;" edge="1" parent="1" source="RO1_awQzEx4fvM8DealU-69" target="RO1_awQzEx4fvM8DealU-76">
          <mxGeometry relative="1" as="geometry" />
        </mxCell>
        <mxCell id="RO1_awQzEx4fvM8DealU-69" value="&lt;b&gt;...&lt;/b&gt;" style="ellipse;whiteSpace=wrap;html=1;aspect=fixed;" vertex="1" parent="1">
          <mxGeometry x="208" y="759" width="43" height="43" as="geometry" />
        </mxCell>
        <mxCell id="RO1_awQzEx4fvM8DealU-99" style="edgeStyle=none;rounded=0;orthogonalLoop=1;jettySize=auto;html=1;exitX=0.5;exitY=1;exitDx=0;exitDy=0;fontSize=18;" edge="1" parent="1" source="RO1_awQzEx4fvM8DealU-70" target="RO1_awQzEx4fvM8DealU-75">
          <mxGeometry relative="1" as="geometry" />
        </mxCell>
        <mxCell id="RO1_awQzEx4fvM8DealU-120" style="edgeStyle=none;rounded=0;orthogonalLoop=1;jettySize=auto;html=1;exitX=0.5;exitY=1;exitDx=0;exitDy=0;entryX=0.5;entryY=0;entryDx=0;entryDy=0;fontSize=18;" edge="1" parent="1" source="RO1_awQzEx4fvM8DealU-70" target="RO1_awQzEx4fvM8DealU-74">
          <mxGeometry relative="1" as="geometry" />
        </mxCell>
        <mxCell id="RO1_awQzEx4fvM8DealU-121" style="edgeStyle=none;rounded=0;orthogonalLoop=1;jettySize=auto;html=1;exitX=0.5;exitY=1;exitDx=0;exitDy=0;entryX=0;entryY=0;entryDx=0;entryDy=0;fontSize=18;" edge="1" parent="1" source="RO1_awQzEx4fvM8DealU-70" target="RO1_awQzEx4fvM8DealU-76">
          <mxGeometry relative="1" as="geometry" />
        </mxCell>
        <mxCell id="RO1_awQzEx4fvM8DealU-70" value="&lt;b&gt;...&lt;/b&gt;" style="ellipse;whiteSpace=wrap;html=1;aspect=fixed;" vertex="1" parent="1">
          <mxGeometry x="380" y="759" width="43" height="43" as="geometry" />
        </mxCell>
        <mxCell id="RO1_awQzEx4fvM8DealU-71" value="&lt;b&gt;...&lt;/b&gt;" style="ellipse;whiteSpace=wrap;html=1;aspect=fixed;" vertex="1" parent="1">
          <mxGeometry x="540" y="759" width="43" height="43" as="geometry" />
        </mxCell>
        <mxCell id="RO1_awQzEx4fvM8DealU-72" value="&lt;b&gt;...&lt;/b&gt;" style="ellipse;whiteSpace=wrap;html=1;aspect=fixed;" vertex="1" parent="1">
          <mxGeometry x="706.5" y="759" width="43" height="43" as="geometry" />
        </mxCell>
        <mxCell id="RO1_awQzEx4fvM8DealU-122" style="edgeStyle=none;rounded=0;orthogonalLoop=1;jettySize=auto;html=1;exitX=1;exitY=1;exitDx=0;exitDy=0;fontSize=18;" edge="1" parent="1" source="RO1_awQzEx4fvM8DealU-74">
          <mxGeometry relative="1" as="geometry">
            <mxPoint x="405" y="901" as="targetPoint" />
          </mxGeometry>
        </mxCell>
        <mxCell id="RO1_awQzEx4fvM8DealU-74" value="&lt;b&gt;...&lt;/b&gt;" style="ellipse;whiteSpace=wrap;html=1;aspect=fixed;" vertex="1" parent="1">
          <mxGeometry x="248.5" y="828" width="43" height="43" as="geometry" />
        </mxCell>
        <mxCell id="RO1_awQzEx4fvM8DealU-100" style="edgeStyle=none;rounded=0;orthogonalLoop=1;jettySize=auto;html=1;exitX=0.5;exitY=1;exitDx=0;exitDy=0;fontSize=18;" edge="1" parent="1" source="RO1_awQzEx4fvM8DealU-75" target="RO1_awQzEx4fvM8DealU-77">
          <mxGeometry relative="1" as="geometry" />
        </mxCell>
        <mxCell id="RO1_awQzEx4fvM8DealU-75" value="" style="ellipse;whiteSpace=wrap;html=1;aspect=fixed;" vertex="1" parent="1">
          <mxGeometry x="380.5" y="828" width="43" height="43" as="geometry" />
        </mxCell>
        <mxCell id="RO1_awQzEx4fvM8DealU-123" style="edgeStyle=none;rounded=0;orthogonalLoop=1;jettySize=auto;html=1;exitX=0;exitY=1;exitDx=0;exitDy=0;entryX=0.5;entryY=0;entryDx=0;entryDy=0;fontSize=18;" edge="1" parent="1" source="RO1_awQzEx4fvM8DealU-76" target="RO1_awQzEx4fvM8DealU-77">
          <mxGeometry relative="1" as="geometry" />
        </mxCell>
        <mxCell id="RO1_awQzEx4fvM8DealU-76" value="&lt;b&gt;...&lt;/b&gt;" style="ellipse;whiteSpace=wrap;html=1;aspect=fixed;" vertex="1" parent="1">
          <mxGeometry x="511.5" y="828" width="43" height="43" as="geometry" />
        </mxCell>
        <mxCell id="RO1_awQzEx4fvM8DealU-77" value="" style="ellipse;whiteSpace=wrap;html=1;aspect=fixed;" vertex="1" parent="1">
          <mxGeometry x="381.5" y="902" width="43" height="43" as="geometry" />
        </mxCell>
      </root>
    </mxGraphModel>
  </diagram>
</mxfile>
